%TF.GenerationSoftware,KiCad,Pcbnew,6.0.7-f9a2dced07~116~ubuntu22.04.1*%
%TF.CreationDate,2022-08-30T22:25:07-07:00*%
%TF.ProjectId,kicad_hello_world,6b696361-645f-4686-956c-6c6f5f776f72,0*%
%TF.SameCoordinates,Original*%
%TF.FileFunction,Copper,L2,Bot*%
%TF.FilePolarity,Positive*%
%FSLAX46Y46*%
G04 Gerber Fmt 4.6, Leading zero omitted, Abs format (unit mm)*
G04 Created by KiCad (PCBNEW 6.0.7-f9a2dced07~116~ubuntu22.04.1) date 2022-08-30 22:25:07*
%MOMM*%
%LPD*%
G01*
G04 APERTURE LIST*
%TA.AperFunction,ComponentPad*%
%ADD10O,1.600000X1.600000*%
%TD*%
%TA.AperFunction,ComponentPad*%
%ADD11C,1.600000*%
%TD*%
%TA.AperFunction,ComponentPad*%
%ADD12R,1.800000X1.800000*%
%TD*%
%TA.AperFunction,ComponentPad*%
%ADD13C,1.800000*%
%TD*%
%TA.AperFunction,SMDPad,CuDef*%
%ADD14R,2.540000X3.510000*%
%TD*%
%TA.AperFunction,ViaPad*%
%ADD15C,0.800000*%
%TD*%
%TA.AperFunction,Conductor*%
%ADD16C,0.250000*%
%TD*%
G04 APERTURE END LIST*
D10*
%TO.P,R1,2*%
%TO.N,/led*%
X137300000Y-114000000D03*
D11*
%TO.P,R1,1*%
%TO.N,VCC*%
X150000000Y-114000000D03*
%TD*%
D12*
%TO.P,D1,1,K*%
%TO.N,GND*%
X120000000Y-114000000D03*
D13*
%TO.P,D1,2,A*%
%TO.N,/led*%
X122540000Y-114000000D03*
%TD*%
D14*
%TO.P,BT1,2,-*%
%TO.N,GND*%
X120320000Y-90000000D03*
%TO.P,BT1,1,+*%
%TO.N,VCC*%
X149680000Y-90000000D03*
%TD*%
D15*
%TO.N,VCC*%
X150000000Y-101000000D03*
%TD*%
D16*
%TO.N,VCC*%
X149680000Y-100680000D02*
X150000000Y-101000000D01*
X149680000Y-90000000D02*
X149680000Y-100680000D01*
%TO.N,GND*%
X120320000Y-90000000D02*
X120320000Y-113680000D01*
X120320000Y-113680000D02*
X120000000Y-114000000D01*
%TD*%
%TA.AperFunction,Conductor*%
%TO.N,GND*%
G36*
X155433621Y-74528502D02*
G01*
X155480114Y-74582158D01*
X155491500Y-74634500D01*
X155491500Y-120365500D01*
X155471498Y-120433621D01*
X155417842Y-120480114D01*
X155365500Y-120491500D01*
X114634500Y-120491500D01*
X114566379Y-120471498D01*
X114519886Y-120417842D01*
X114508500Y-120365500D01*
X114508500Y-114944669D01*
X118592001Y-114944669D01*
X118592371Y-114951490D01*
X118597895Y-115002352D01*
X118601521Y-115017604D01*
X118646676Y-115138054D01*
X118655214Y-115153649D01*
X118731715Y-115255724D01*
X118744276Y-115268285D01*
X118846351Y-115344786D01*
X118861946Y-115353324D01*
X118982394Y-115398478D01*
X118997649Y-115402105D01*
X119048514Y-115407631D01*
X119055328Y-115408000D01*
X119727885Y-115408000D01*
X119743124Y-115403525D01*
X119744329Y-115402135D01*
X119746000Y-115394452D01*
X119746000Y-115389884D01*
X120254000Y-115389884D01*
X120258475Y-115405123D01*
X120259865Y-115406328D01*
X120267548Y-115407999D01*
X120944669Y-115407999D01*
X120951490Y-115407629D01*
X121002352Y-115402105D01*
X121017604Y-115398479D01*
X121138054Y-115353324D01*
X121153649Y-115344786D01*
X121255724Y-115268285D01*
X121268285Y-115255724D01*
X121344786Y-115153649D01*
X121353324Y-115138054D01*
X121374773Y-115080840D01*
X121417415Y-115024075D01*
X121483977Y-114999376D01*
X121553325Y-115014584D01*
X121573240Y-115028126D01*
X121705010Y-115137523D01*
X121729349Y-115157730D01*
X121929322Y-115274584D01*
X122145694Y-115357209D01*
X122150760Y-115358240D01*
X122150761Y-115358240D01*
X122203846Y-115369040D01*
X122372656Y-115403385D01*
X122503324Y-115408176D01*
X122598949Y-115411683D01*
X122598953Y-115411683D01*
X122604113Y-115411872D01*
X122609233Y-115411216D01*
X122609235Y-115411216D01*
X122708668Y-115398478D01*
X122833847Y-115382442D01*
X122838795Y-115380957D01*
X122838802Y-115380956D01*
X123050747Y-115317369D01*
X123055690Y-115315886D01*
X123060565Y-115313498D01*
X123259049Y-115216262D01*
X123259052Y-115216260D01*
X123263684Y-115213991D01*
X123452243Y-115079494D01*
X123616303Y-114916005D01*
X123751458Y-114727917D01*
X123854078Y-114520280D01*
X123921408Y-114298671D01*
X123951640Y-114069041D01*
X123953327Y-114000000D01*
X135986502Y-114000000D01*
X136006457Y-114228087D01*
X136007881Y-114233400D01*
X136007881Y-114233402D01*
X136017031Y-114267548D01*
X136065716Y-114449243D01*
X136068039Y-114454224D01*
X136068039Y-114454225D01*
X136160151Y-114651762D01*
X136160154Y-114651767D01*
X136162477Y-114656749D01*
X136293802Y-114844300D01*
X136455700Y-115006198D01*
X136460208Y-115009355D01*
X136460211Y-115009357D01*
X136460821Y-115009784D01*
X136643251Y-115137523D01*
X136648233Y-115139846D01*
X136648238Y-115139849D01*
X136807238Y-115213991D01*
X136850757Y-115234284D01*
X136856065Y-115235706D01*
X136856067Y-115235707D01*
X137066598Y-115292119D01*
X137066600Y-115292119D01*
X137071913Y-115293543D01*
X137300000Y-115313498D01*
X137528087Y-115293543D01*
X137533400Y-115292119D01*
X137533402Y-115292119D01*
X137743933Y-115235707D01*
X137743935Y-115235706D01*
X137749243Y-115234284D01*
X137792762Y-115213991D01*
X137951762Y-115139849D01*
X137951767Y-115139846D01*
X137956749Y-115137523D01*
X138139179Y-115009784D01*
X138139789Y-115009357D01*
X138139792Y-115009355D01*
X138144300Y-115006198D01*
X138306198Y-114844300D01*
X138437523Y-114656749D01*
X138439846Y-114651767D01*
X138439849Y-114651762D01*
X138531961Y-114454225D01*
X138531961Y-114454224D01*
X138534284Y-114449243D01*
X138582970Y-114267548D01*
X138592119Y-114233402D01*
X138592119Y-114233400D01*
X138593543Y-114228087D01*
X138613498Y-114000000D01*
X148686502Y-114000000D01*
X148706457Y-114228087D01*
X148707881Y-114233400D01*
X148707881Y-114233402D01*
X148717031Y-114267548D01*
X148765716Y-114449243D01*
X148768039Y-114454224D01*
X148768039Y-114454225D01*
X148860151Y-114651762D01*
X148860154Y-114651767D01*
X148862477Y-114656749D01*
X148993802Y-114844300D01*
X149155700Y-115006198D01*
X149160208Y-115009355D01*
X149160211Y-115009357D01*
X149160821Y-115009784D01*
X149343251Y-115137523D01*
X149348233Y-115139846D01*
X149348238Y-115139849D01*
X149507238Y-115213991D01*
X149550757Y-115234284D01*
X149556065Y-115235706D01*
X149556067Y-115235707D01*
X149766598Y-115292119D01*
X149766600Y-115292119D01*
X149771913Y-115293543D01*
X150000000Y-115313498D01*
X150228087Y-115293543D01*
X150233400Y-115292119D01*
X150233402Y-115292119D01*
X150443933Y-115235707D01*
X150443935Y-115235706D01*
X150449243Y-115234284D01*
X150492762Y-115213991D01*
X150651762Y-115139849D01*
X150651767Y-115139846D01*
X150656749Y-115137523D01*
X150839179Y-115009784D01*
X150839789Y-115009357D01*
X150839792Y-115009355D01*
X150844300Y-115006198D01*
X151006198Y-114844300D01*
X151137523Y-114656749D01*
X151139846Y-114651767D01*
X151139849Y-114651762D01*
X151231961Y-114454225D01*
X151231961Y-114454224D01*
X151234284Y-114449243D01*
X151282970Y-114267548D01*
X151292119Y-114233402D01*
X151292119Y-114233400D01*
X151293543Y-114228087D01*
X151313498Y-114000000D01*
X151293543Y-113771913D01*
X151285028Y-113740135D01*
X151235707Y-113556067D01*
X151235706Y-113556065D01*
X151234284Y-113550757D01*
X151216203Y-113511981D01*
X151139849Y-113348238D01*
X151139846Y-113348233D01*
X151137523Y-113343251D01*
X151006198Y-113155700D01*
X150844300Y-112993802D01*
X150839792Y-112990645D01*
X150839789Y-112990643D01*
X150737463Y-112918994D01*
X150656749Y-112862477D01*
X150651767Y-112860154D01*
X150651762Y-112860151D01*
X150454225Y-112768039D01*
X150454224Y-112768039D01*
X150449243Y-112765716D01*
X150443935Y-112764294D01*
X150443933Y-112764293D01*
X150233402Y-112707881D01*
X150233400Y-112707881D01*
X150228087Y-112706457D01*
X150000000Y-112686502D01*
X149771913Y-112706457D01*
X149766600Y-112707881D01*
X149766598Y-112707881D01*
X149556067Y-112764293D01*
X149556065Y-112764294D01*
X149550757Y-112765716D01*
X149545776Y-112768039D01*
X149545775Y-112768039D01*
X149348238Y-112860151D01*
X149348233Y-112860154D01*
X149343251Y-112862477D01*
X149262537Y-112918994D01*
X149160211Y-112990643D01*
X149160208Y-112990645D01*
X149155700Y-112993802D01*
X148993802Y-113155700D01*
X148862477Y-113343251D01*
X148860154Y-113348233D01*
X148860151Y-113348238D01*
X148783797Y-113511981D01*
X148765716Y-113550757D01*
X148764294Y-113556065D01*
X148764293Y-113556067D01*
X148714972Y-113740135D01*
X148706457Y-113771913D01*
X148686502Y-114000000D01*
X138613498Y-114000000D01*
X138593543Y-113771913D01*
X138585028Y-113740135D01*
X138535707Y-113556067D01*
X138535706Y-113556065D01*
X138534284Y-113550757D01*
X138516203Y-113511981D01*
X138439849Y-113348238D01*
X138439846Y-113348233D01*
X138437523Y-113343251D01*
X138306198Y-113155700D01*
X138144300Y-112993802D01*
X138139792Y-112990645D01*
X138139789Y-112990643D01*
X138037463Y-112918994D01*
X137956749Y-112862477D01*
X137951767Y-112860154D01*
X137951762Y-112860151D01*
X137754225Y-112768039D01*
X137754224Y-112768039D01*
X137749243Y-112765716D01*
X137743935Y-112764294D01*
X137743933Y-112764293D01*
X137533402Y-112707881D01*
X137533400Y-112707881D01*
X137528087Y-112706457D01*
X137300000Y-112686502D01*
X137071913Y-112706457D01*
X137066600Y-112707881D01*
X137066598Y-112707881D01*
X136856067Y-112764293D01*
X136856065Y-112764294D01*
X136850757Y-112765716D01*
X136845776Y-112768039D01*
X136845775Y-112768039D01*
X136648238Y-112860151D01*
X136648233Y-112860154D01*
X136643251Y-112862477D01*
X136562537Y-112918994D01*
X136460211Y-112990643D01*
X136460208Y-112990645D01*
X136455700Y-112993802D01*
X136293802Y-113155700D01*
X136162477Y-113343251D01*
X136160154Y-113348233D01*
X136160151Y-113348238D01*
X136083797Y-113511981D01*
X136065716Y-113550757D01*
X136064294Y-113556065D01*
X136064293Y-113556067D01*
X136014972Y-113740135D01*
X136006457Y-113771913D01*
X135986502Y-114000000D01*
X123953327Y-114000000D01*
X123947032Y-113923434D01*
X123934773Y-113774318D01*
X123934772Y-113774312D01*
X123934349Y-113769167D01*
X123880822Y-113556067D01*
X123879184Y-113549544D01*
X123879183Y-113549540D01*
X123877925Y-113544533D01*
X123785570Y-113332131D01*
X123659764Y-113137665D01*
X123503887Y-112966358D01*
X123499836Y-112963159D01*
X123499832Y-112963155D01*
X123326177Y-112826011D01*
X123326172Y-112826008D01*
X123322123Y-112822810D01*
X123317607Y-112820317D01*
X123317604Y-112820315D01*
X123123879Y-112713373D01*
X123123875Y-112713371D01*
X123119355Y-112710876D01*
X123114486Y-112709152D01*
X123114482Y-112709150D01*
X122905903Y-112635288D01*
X122905899Y-112635287D01*
X122901028Y-112633562D01*
X122895935Y-112632655D01*
X122895932Y-112632654D01*
X122678095Y-112593851D01*
X122678089Y-112593850D01*
X122673006Y-112592945D01*
X122595644Y-112592000D01*
X122446581Y-112590179D01*
X122446579Y-112590179D01*
X122441411Y-112590116D01*
X122212464Y-112625150D01*
X121992314Y-112697106D01*
X121987726Y-112699494D01*
X121987722Y-112699496D01*
X121791461Y-112801663D01*
X121786872Y-112804052D01*
X121782739Y-112807155D01*
X121782736Y-112807157D01*
X121605790Y-112940012D01*
X121601655Y-112943117D01*
X121598083Y-112946855D01*
X121583787Y-112961815D01*
X121522263Y-112997245D01*
X121451351Y-112993788D01*
X121393564Y-112952543D01*
X121374711Y-112918994D01*
X121353324Y-112861946D01*
X121344786Y-112846351D01*
X121268285Y-112744276D01*
X121255724Y-112731715D01*
X121153649Y-112655214D01*
X121138054Y-112646676D01*
X121017606Y-112601522D01*
X121002351Y-112597895D01*
X120951486Y-112592369D01*
X120944672Y-112592000D01*
X120272115Y-112592000D01*
X120256876Y-112596475D01*
X120255671Y-112597865D01*
X120254000Y-112605548D01*
X120254000Y-115389884D01*
X119746000Y-115389884D01*
X119746000Y-114272115D01*
X119741525Y-114256876D01*
X119740135Y-114255671D01*
X119732452Y-114254000D01*
X118610116Y-114254000D01*
X118594877Y-114258475D01*
X118593672Y-114259865D01*
X118592001Y-114267548D01*
X118592001Y-114944669D01*
X114508500Y-114944669D01*
X114508500Y-113727885D01*
X118592000Y-113727885D01*
X118596475Y-113743124D01*
X118597865Y-113744329D01*
X118605548Y-113746000D01*
X119727885Y-113746000D01*
X119743124Y-113741525D01*
X119744329Y-113740135D01*
X119746000Y-113732452D01*
X119746000Y-112610116D01*
X119741525Y-112594877D01*
X119740135Y-112593672D01*
X119732452Y-112592001D01*
X119055331Y-112592001D01*
X119048510Y-112592371D01*
X118997648Y-112597895D01*
X118982396Y-112601521D01*
X118861946Y-112646676D01*
X118846351Y-112655214D01*
X118744276Y-112731715D01*
X118731715Y-112744276D01*
X118655214Y-112846351D01*
X118646676Y-112861946D01*
X118601522Y-112982394D01*
X118597895Y-112997649D01*
X118592369Y-113048514D01*
X118592000Y-113055328D01*
X118592000Y-113727885D01*
X114508500Y-113727885D01*
X114508500Y-91799669D01*
X118542001Y-91799669D01*
X118542371Y-91806490D01*
X118547895Y-91857352D01*
X118551521Y-91872604D01*
X118596676Y-91993054D01*
X118605214Y-92008649D01*
X118681715Y-92110724D01*
X118694276Y-92123285D01*
X118796351Y-92199786D01*
X118811946Y-92208324D01*
X118932394Y-92253478D01*
X118947649Y-92257105D01*
X118998514Y-92262631D01*
X119005328Y-92263000D01*
X120047885Y-92263000D01*
X120063124Y-92258525D01*
X120064329Y-92257135D01*
X120066000Y-92249452D01*
X120066000Y-92244884D01*
X120574000Y-92244884D01*
X120578475Y-92260123D01*
X120579865Y-92261328D01*
X120587548Y-92262999D01*
X121634669Y-92262999D01*
X121641490Y-92262629D01*
X121692352Y-92257105D01*
X121707604Y-92253479D01*
X121828054Y-92208324D01*
X121843649Y-92199786D01*
X121945724Y-92123285D01*
X121958285Y-92110724D01*
X122034786Y-92008649D01*
X122043324Y-91993054D01*
X122088478Y-91872606D01*
X122092105Y-91857351D01*
X122097631Y-91806486D01*
X122097813Y-91803134D01*
X147901500Y-91803134D01*
X147908255Y-91865316D01*
X147959385Y-92001705D01*
X148046739Y-92118261D01*
X148163295Y-92205615D01*
X148299684Y-92256745D01*
X148361866Y-92263500D01*
X148920500Y-92263500D01*
X148988621Y-92283502D01*
X149035114Y-92337158D01*
X149046500Y-92389500D01*
X149046500Y-100601233D01*
X149045973Y-100612416D01*
X149044298Y-100619909D01*
X149044547Y-100627835D01*
X149044547Y-100627836D01*
X149046438Y-100687986D01*
X149046500Y-100691945D01*
X149046500Y-100719856D01*
X149046997Y-100723790D01*
X149046997Y-100723791D01*
X149047005Y-100723856D01*
X149047938Y-100735693D01*
X149049327Y-100779889D01*
X149054978Y-100799339D01*
X149058987Y-100818700D01*
X149061526Y-100838797D01*
X149064445Y-100846168D01*
X149064445Y-100846170D01*
X149077804Y-100879912D01*
X149081649Y-100891143D01*
X149086713Y-100908574D01*
X149091026Y-100956895D01*
X149086496Y-101000000D01*
X149106458Y-101189928D01*
X149165473Y-101371556D01*
X149260960Y-101536944D01*
X149388747Y-101678866D01*
X149543248Y-101791118D01*
X149549276Y-101793802D01*
X149549278Y-101793803D01*
X149711681Y-101866109D01*
X149717712Y-101868794D01*
X149811112Y-101888647D01*
X149898056Y-101907128D01*
X149898061Y-101907128D01*
X149904513Y-101908500D01*
X150095487Y-101908500D01*
X150101939Y-101907128D01*
X150101944Y-101907128D01*
X150188888Y-101888647D01*
X150282288Y-101868794D01*
X150288319Y-101866109D01*
X150450722Y-101793803D01*
X150450724Y-101793802D01*
X150456752Y-101791118D01*
X150611253Y-101678866D01*
X150739040Y-101536944D01*
X150834527Y-101371556D01*
X150893542Y-101189928D01*
X150913504Y-101000000D01*
X150902063Y-100891143D01*
X150894232Y-100816635D01*
X150894232Y-100816633D01*
X150893542Y-100810072D01*
X150834527Y-100628444D01*
X150739040Y-100463056D01*
X150611253Y-100321134D01*
X150456752Y-100208882D01*
X150450719Y-100206196D01*
X150450714Y-100206193D01*
X150388251Y-100178382D01*
X150334155Y-100132402D01*
X150313500Y-100063276D01*
X150313500Y-92389500D01*
X150333502Y-92321379D01*
X150387158Y-92274886D01*
X150439500Y-92263500D01*
X150998134Y-92263500D01*
X151060316Y-92256745D01*
X151196705Y-92205615D01*
X151313261Y-92118261D01*
X151400615Y-92001705D01*
X151451745Y-91865316D01*
X151458500Y-91803134D01*
X151458500Y-88196866D01*
X151451745Y-88134684D01*
X151400615Y-87998295D01*
X151313261Y-87881739D01*
X151196705Y-87794385D01*
X151060316Y-87743255D01*
X150998134Y-87736500D01*
X148361866Y-87736500D01*
X148299684Y-87743255D01*
X148163295Y-87794385D01*
X148046739Y-87881739D01*
X147959385Y-87998295D01*
X147908255Y-88134684D01*
X147901500Y-88196866D01*
X147901500Y-91803134D01*
X122097813Y-91803134D01*
X122098000Y-91799672D01*
X122098000Y-90272115D01*
X122093525Y-90256876D01*
X122092135Y-90255671D01*
X122084452Y-90254000D01*
X120592115Y-90254000D01*
X120576876Y-90258475D01*
X120575671Y-90259865D01*
X120574000Y-90267548D01*
X120574000Y-92244884D01*
X120066000Y-92244884D01*
X120066000Y-90272115D01*
X120061525Y-90256876D01*
X120060135Y-90255671D01*
X120052452Y-90254000D01*
X118560116Y-90254000D01*
X118544877Y-90258475D01*
X118543672Y-90259865D01*
X118542001Y-90267548D01*
X118542001Y-91799669D01*
X114508500Y-91799669D01*
X114508500Y-89727885D01*
X118542000Y-89727885D01*
X118546475Y-89743124D01*
X118547865Y-89744329D01*
X118555548Y-89746000D01*
X120047885Y-89746000D01*
X120063124Y-89741525D01*
X120064329Y-89740135D01*
X120066000Y-89732452D01*
X120066000Y-89727885D01*
X120574000Y-89727885D01*
X120578475Y-89743124D01*
X120579865Y-89744329D01*
X120587548Y-89746000D01*
X122079884Y-89746000D01*
X122095123Y-89741525D01*
X122096328Y-89740135D01*
X122097999Y-89732452D01*
X122097999Y-88200331D01*
X122097629Y-88193510D01*
X122092105Y-88142648D01*
X122088479Y-88127396D01*
X122043324Y-88006946D01*
X122034786Y-87991351D01*
X121958285Y-87889276D01*
X121945724Y-87876715D01*
X121843649Y-87800214D01*
X121828054Y-87791676D01*
X121707606Y-87746522D01*
X121692351Y-87742895D01*
X121641486Y-87737369D01*
X121634672Y-87737000D01*
X120592115Y-87737000D01*
X120576876Y-87741475D01*
X120575671Y-87742865D01*
X120574000Y-87750548D01*
X120574000Y-89727885D01*
X120066000Y-89727885D01*
X120066000Y-87755116D01*
X120061525Y-87739877D01*
X120060135Y-87738672D01*
X120052452Y-87737001D01*
X119005331Y-87737001D01*
X118998510Y-87737371D01*
X118947648Y-87742895D01*
X118932396Y-87746521D01*
X118811946Y-87791676D01*
X118796351Y-87800214D01*
X118694276Y-87876715D01*
X118681715Y-87889276D01*
X118605214Y-87991351D01*
X118596676Y-88006946D01*
X118551522Y-88127394D01*
X118547895Y-88142649D01*
X118542369Y-88193514D01*
X118542000Y-88200328D01*
X118542000Y-89727885D01*
X114508500Y-89727885D01*
X114508500Y-74634500D01*
X114528502Y-74566379D01*
X114582158Y-74519886D01*
X114634500Y-74508500D01*
X155365500Y-74508500D01*
X155433621Y-74528502D01*
G37*
%TD.AperFunction*%
%TD*%
M02*
